<svg xmlns="http://www.w3.org/2000/svg" xmlns:xlink="http://www.w3.org/1999/xlink" viewBox="0 0 542.69 130.02"><defs><style>.cls-1,.cls-2{font-size:106px;font-family:Unispace-Bold, Unispace;font-weight:700;letter-spacing:-0.02em;}.cls-2{fill:#434244;}.cls-3{fill:url(#radial-gradient);}.cls-4{fill:url(#radial-gradient-4);}.cls-5{fill:url(#radial-gradient-7);}</style><radialGradient id="radial-gradient" cx="57.33" cy="110.41" r="89.2" gradientUnits="userSpaceOnUse"><stop offset="0" stop-color="#ff5f6d"/><stop offset="1" stop-color="#ff9e71"/></radialGradient><radialGradient id="radial-gradient-4" cx="53.33" cy="110.41" r="89.2" xlink:href="#radial-gradient"/><radialGradient id="radial-gradient-7" cx="55.33" cy="110.41" r="89.2" xlink:href="#radial-gradient"/></defs><g id="Layer_2" data-name="Layer 2"><g id="OBJECTS"><text class="cls-1" transform="translate(107.89 104.26)">BOOKISH</text><text class="cls-2" transform="translate(107.89 104.26)">BOOKISH</text><path class="cls-3" d="M97.27,0H73.91a3,3,0,0,0-3,3V8.15h29.33V3A3,3,0,0,0,97.27,0Z"/><rect class="cls-3" x="70.93" y="94.41" width="29.32" height="8.15"/><path class="cls-3" d="M70.93,92.27h29.33v-82H70.93ZM82.67,26.38a2.93,2.93,0,0,1,5.85,0V76.17a2.93,2.93,0,1,1-5.85,0Z"/><rect class="cls-4" x="8.28" y="94.41" width="29.32" height="8.15"/><path class="cls-4" d="M8.28,92.27H37.61V25.9H8.28ZM20,34.59a2.93,2.93,0,1,1,5.85,0v49a2.93,2.93,0,1,1-5.85,0Z"/><path class="cls-4" d="M34.62,15.61H11.26a3,3,0,0,0-3,3v5.17H37.61V18.59A3,3,0,0,0,34.62,15.61Z"/><polygon class="cls-5" points="68.86 94.41 68.53 94.41 39.61 94.41 39.61 102.56 68.93 102.56 68.93 94.41 68.86 94.41"/><path class="cls-5" d="M68.86,92.27h.07V30.54a3,3,0,0,0-3-3H42.59a3,3,0,0,0-3,3v5.17H68.86v2.14H39.61V92.27H68.86ZM57.13,83.75a2.93,2.93,0,0,1-5.86,0V46.37a2.93,2.93,0,0,1,5.86,0Z"/><path class="cls-5" d="M107.68,104.26H1.71a1.71,1.71,0,1,1,0-3.41h106a1.71,1.71,0,0,1,0,3.41Z"/></g></g></svg>